inDegrees=no
num_controls=7
num_derivatives=13
num_iterations=72
num_multipliers=7
num_parameters=0
num_slacks=7
num_states=26
objective=0.333910
objective_accelerations=0.037201
objective_balance=0.001337
objective_effort=0.027286
objective_height=0.266611
objective_ligament=0.001475
solver_duration=738.266582
status=Solve_Succeeded
success=true
DataType=double
version=3
OpenSimVersion=4.5
endheader
time	/jointset/ground_pelvis/pelvis_tilt/value	/jointset/ground_pelvis/pelvis_tx/value	/jointset/ground_pelvis/pelvis_ty/value	/jointset/hip_r/hip_flexion_r/value	/jointset/hip_r/hip_adduction_r/value	/jointset/hip_r/hip_rotation_r/value	/jointset/back/lumbar_extension/value	/jointset/patellofemoral_r/patellar_flexion_r/value	/jointset/knee_r/knee_flexion_r/value	/jointset/knee_r/knee_adduction_r/value	/jointset/knee_r/knee_rotation_r/value	/jointset/ankle_r/ankle_angle_r/value	/jointset/subtalar_r/subtalar_angle_r/value	/jointset/ground_pelvis/pelvis_tilt/speed	/jointset/ground_pelvis/pelvis_tx/speed	/jointset/ground_pelvis/pelvis_ty/speed	/jointset/hip_r/hip_flexion_r/speed	/jointset/hip_r/hip_adduction_r/speed	/jointset/hip_r/hip_rotation_r/speed	/jointset/back/lumbar_extension/speed	/jointset/patellofemoral_r/patellar_flexion_r/speed	/jointset/knee_r/knee_flexion_r/speed	/jointset/knee_r/knee_adduction_r/speed	/jointset/knee_r/knee_rotation_r/speed	/jointset/ankle_r/ankle_angle_r/speed	/jointset/subtalar_r/subtalar_angle_r/speed	/forceset/tau_hip_flexion_r	/forceset/tau_hip_adduction_r	/forceset/tau_hip_rotation_r	/forceset/tau_knee_flexion_r	/forceset/tau_ankle_angle_r	/forceset/tau_subtalar_angle_r	/forceset/tau_lumbar_extension	lambda_cid13_p0	lambda_cid14_p0	lambda_cid14_p1	lambda_cid14_p2	lambda_cid14_p3	lambda_cid14_p4	lambda_cid14_p5	/jointset/ground_pelvis/pelvis_tilt/accel	/jointset/ground_pelvis/pelvis_tx/accel	/jointset/ground_pelvis/pelvis_ty/accel	/jointset/hip_r/hip_flexion_r/accel	/jointset/hip_r/hip_adduction_r/accel	/jointset/hip_r/hip_rotation_r/accel	/jointset/back/lumbar_extension/accel	/jointset/patellofemoral_r/patellar_flexion_r/accel	/jointset/knee_r/knee_flexion_r/accel	/jointset/knee_r/knee_adduction_r/accel	/jointset/knee_r/knee_rotation_r/accel	/jointset/ankle_r/ankle_angle_r/accel	/jointset/subtalar_r/subtalar_angle_r/accel	gamma_cid13_p0	gamma_cid14_p0	gamma_cid14_p1	gamma_cid14_p2	gamma_cid14_p3	gamma_cid14_p4	gamma_cid14_p5
0	-0.01093068089549313	0.1337630052951552	0.9326005365762481	0.1934211968871041	-0.2368331337466395	-0.2331341508650874	-0.2903787966825928	0.2311786273363429	0.2311786273363406	0.151986374331871	0.1702633000111724	0.089344008118978	0.05303052148096381	0	0	0	0	0	0	0	0	0	0	0	0	0	0.104008344694703	-0.03632378171341967	0.006780008538757152	-0.2403178997389192	0.1169080915126788	-0.1280223135391485	-0.02611822844808405	-29.90125902170062	-10.72444409997443	-52.45133885847837	3.042611777210501	4.912794166946242	-611.6585113765133	16.31295736222608	-2.08997165501919	-1.931096536355124	-0.8282944327140709	10.33761264568325	0.3369122619799865	2.208155014953167	-6.223288840050064	10.09876245326106	10.09876245326663	-3.279455801783912	0.3528039830961058	2.695146460002476	1.143888733519383	6.638086630972872e-08	5.199958660934751e-08	-4.169011949873863e-07	3.424566325741259e-07	6.808546807033969e-09	2.228770533062861e-07	-3.891042151357927e-07
0.01	-0.01102975535380145	0.1336689182109272	0.9325602324607479	0.1939250513701541	-0.2368141120134533	-0.2330224667207168	-0.2906919221255153	0.2316750358121213	0.2316750358121234	0.15182013351813	0.170276023146348	0.08947889108514157	0.05309042332127547	-0.01979854263356274	-0.01859130503007275	-0.0080481309469916	0.1002380345603613	0.003739499998058439	0.02227111037175168	-0.06226080800821628	0.09887824151091786	0.0988782415109327	-0.03299764016729895	0.002516293464232636	0.02703674704215376	0.01192028235165885	0.1060666288195135	-0.05758833271489253	0.006258558737661022	-0.2494676355315687	0.1283095965859138	-0.1146029271415457	-0.02640424929333512	-29.90603740500327	-6.368772813022122	-45.78637204991458	1.895186186214885	-0.3028343538907926	-612.9410503332181	31.14809713480643	-1.922344485972453	-1.789229352439401	-0.7911240273163109	9.786971691029018	0.3827360793308865	2.226799673680218	-6.172834694679295	9.721823677096806	9.721823677095617	-3.27237439667843	0.1968592218674941	2.716971479867186	1.207059656160933	8.733811899546193e-08	4.456403885908893e-08	-5.410824471325098e-07	4.49186220357466e-07	3.026541724670548e-08	1.209549250845701e-07	-5.319546404018562e-07
0.02	-0.01132632502213715	0.1333957017031771	0.9324398367154528	0.1954153007647664	-0.2367596418381638	-0.2326900293475481	-0.2916167272312151	0.2331481204384305	0.2331481204384303	0.1513314250482194	0.1703130726549118	0.08988594805243615	0.05326772031913807	-0.03949904200502155	-0.0358258847044195	-0.01601832595897651	0.1972789823133806	0.007089688420602387	0.04415064575926636	-0.1223359325553012	0.195335230105422	0.1953352301054264	-0.06449353123361812	0.004865274679691678	0.05443480022612103	0.02347903151018849	0.108124912944295	-0.07885288371636863	0.005737108936522785	-0.2586173713242301	0.139711101659143	-0.1011835407439479	-0.02669027013860463	-29.91995642731305	-1.933230316112534	-39.13199937603319	0.7775267670560415	-5.431258328709402	-612.892430058821	45.63233640843561	-2.070363002598349	-1.659751465209977	-0.8127072457127307	9.698195284214856	0.2590499468770839	2.129840018105764	-5.786152147823766	9.614511869978339	9.614511869978843	-2.979105981587949	0.3193415333413943	2.767407688365122	1.071582094893519	1.082953716811951e-07	3.712849110883035e-08	-6.652636992776334e-07	5.559158081408061e-07	5.372228768637698e-08	1.903279686285408e-08	-6.748050656679197e-07
0.03	-0.01181906611247543	0.1329554035417816	0.9322399427567121	0.1978611413912884	-0.2366733875269285	-0.2321430486545576	-0.293130188044799	0.2355731196385283	0.2355731196385271	0.1505348721187838	0.1703744490179385	0.09056651336898258	0.05355851239673064	-0.05895811303742883	-0.05215883564532283	-0.02395885300809554	0.2914292163654298	0.01014173996101939	0.06512381993110652	-0.1799194961993699	0.2891828724452463	0.2891828724452477	-0.09463361693591427	0.007364020240760781	0.08151875042376408	0.03461795130400721	0.1017600657161206	-0.08061401872800444	0.006528604137902935	-0.2515611589765985	0.1292114304244886	-0.0947748410585741	-0.02150716745122332	-29.9424808184976	-4.979149069474996	-36.72798916569671	0.218322017468587	-4.037513233644145	-613.3106081206704	49.42328336162802	-1.870013793651622	-1.608819280027476	-0.7844801225919379	9.204453772445904	0.3253760498750221	2.062913452855164	-5.678948378313626	9.197608051966366	9.197608051965664	-3.003992546584294	0.2083516120469598	2.654972331688224	1.12579348850223	1.192178166809273e-07	3.453894051408785e-08	-7.067999415583859e-07	6.216571261743546e-07	6.294084973061112e-08	-5.288713777824822e-08	-7.418060271264619e-07
0.04	-0.01250366484115772	0.1323540253966774	0.9319606925898641	0.2012346876196792	-0.2365571940418396	-0.2313899647526221	-0.2952063824759467	0.2389221387892184	0.2389221387892193	0.1494424117959144	0.1704594549454932	0.09151313491675023	0.05395884298563663	-0.07787056967341636	-0.0680418814461367	-0.03188956758044204	0.3828201026873161	0.01307752319147677	0.08537128754822781	-0.2348826560680403	0.3801392202243465	0.3801392202243449	-0.1236750099195632	0.009591187584120914	0.1076460464703795	0.04538673377287235	0.09539521848795054	-0.08237515373964002	0.007320099339304662	-0.2445049466289682	0.1187117591898344	-0.08836614137320029	-0.01632406476383776	-29.97245003485882	-7.951320336903992	-34.33083710359153	-0.3172059815151735	-2.573955785772329	-612.5188011753146	52.89469489751708	-1.961040123314345	-1.569770437192132	-0.8107447503582217	9.146325738182282	0.2357962848851537	1.984698707161994	-5.262071392744074	9.03625295783354	9.036252957834035	-2.759367437858497	0.2650258897996075	2.576076858159538	0.9975546299027819	1.299333584294018e-07	3.20493073864694e-08	-7.466321630171927e-07	6.865533252439899e-07	7.186583840586715e-08	-1.241884704898534e-07	-8.072430821147458e-07
0.05	-0.01337518168283098	0.1315962062919432	0.9316018820409866	0.2055090329714049	-0.2364125664538253	-0.230438719107166	-0.2978192801671631	0.2431669557484548	0.2431669557484545	0.1480656274995286	0.1705661587350741	0.0927165514651893	0.05446471857105632	-0.09634762352325106	-0.08343171017213277	-0.03989230263284554	0.4715992567160694	0.01582395512947624	0.1047379570495957	-0.2873278945218994	0.4683829715277648	0.4683829715277664	-0.1514920086678382	0.01171173452993373	0.1329120055441085	0.05573407419525022	0.09005076511565989	-0.07520343137233972	0.007761906657040715	-0.2402928312527139	0.1143590541385496	-0.08965614606907962	-0.01194868150257016	-30.00864632657829	-9.350179576264436	-35.19938448649209	-0.1063540600111767	-2.184711138871132	-611.7884412244227	49.5094705762279	-1.778250974026725	-1.510040245859651	-0.7980273622091696	8.676261190744819	0.2904854694980228	1.891799090187358	-5.180401923643794	8.652230129063442	8.652230129063557	-2.764436609171914	0.1800240748364622	2.483077051577273	1.045142163368046	1.171576195806506e-07	2.11579079675939e-08	-6.375301923373723e-07	6.379347849528929e-07	6.880349023473912e-08	-1.981480906617294e-07	-7.270544402334572e-07
0.06	-0.01442891165464603	0.1306871986688375	0.9311624462456795	0.2106576800545233	-0.2362411907821832	-0.2292979771629833	-0.3009455606133053	0.2482809690032207	0.2482809690032194	0.1464163591124825	0.1706929589896833	0.09416887192828564	0.05507243124369231	-0.1143131957014268	-0.09827958512041136	-0.04801461686635553	0.5576804489657403	0.01842713991710456	0.1232705472934912	-0.3375592070532311	0.5539784793298819	0.5539784793298829	-0.1781718280505082	0.0136104805903202	0.1574268294017447	0.06575415121613727	0.0847063117433844	-0.06803170900504533	0.008203713974766269	-0.2360807158764519	0.1100063490872655	-0.0909461507649659	-0.007573298241289169	-30.04945718836378	-10.6845891882503	-36.07897391278139	0.1317608215429433	-1.736962168926524	-609.9822371358424	45.83434338410725	-1.858743788982503	-1.461379681648686	-0.8346605865795149	8.60673338236581	0.2071468548109212	1.817882855667514	-4.819286208238583	8.506604257573285	8.50660425757307	-2.53193156473751	0.2206657127143469	2.425849814940945	0.9321019496045967	1.033927741804373e-07	9.9127499680339e-09	-5.221573083043468e-07	5.845366766887126e-07	6.523641209113173e-08	-2.722196387266695e-07	-6.407341900629235e-07
